<svg width="34px" height="28px" viewBox="0 0 34 28" version="1.1" xmlns="http://www.w3.org/2000/svg" xmlns:xlink="http://www.w3.org/1999/xlink">
    <g id="Projectinrichting" stroke="none" stroke-width="1" fill="none" fill-rule="evenodd">
        <g id="Home" transform="translate(-1662.000000, -51.000000)" fill-rule="nonzero">
            <g id="Group-8" transform="translate(1662.000000, 51.000000)">
                <g id="click" transform="translate(26.500000, 7.500000) rotate(90.000000) translate(-26.500000, -7.500000) translate(19.000000, 0.000000)" fill="#E39A3F">
                    <path d="M8.67233259,5.33682006 C9.04075107,5.33682006 9.3394351,5.03813603 9.3394351,4.66971755 L9.3394351,0.667102507 C9.3394351,0.298684029 9.04075107,0 8.67233259,0 C8.30391411,0 8.00523008,0.298684029 8.00523008,0.667102507 L8.00523008,4.66971755 C8.00523008,5.03813603 8.30391411,5.33682006 8.67233259,5.33682006 Z" id="Path"></path>
                    <path d="M3.48347587,2.54005951 C3.22299458,2.27953374 2.80058527,2.27953374 2.54005951,2.54005951 C2.27953374,2.80058527 2.27953374,3.22295011 2.54005951,3.48347587 L5.37035308,6.31376944 C5.63083437,6.57429521 6.05328815,6.57429521 6.31376944,6.31376944 C6.57429521,6.05324367 6.57429521,5.63087884 6.31376944,5.37035308 L3.48347587,2.54005951 Z" id="Path"></path>
                    <path d="M5.37035308,11.0308957 L2.54005951,13.8611893 C2.27953374,14.1217151 2.27953374,14.5440799 2.54005951,14.8046057 C2.8005408,15.0651314 3.22299458,15.0651314 3.48347587,14.8046057 L6.31376944,11.9743121 C6.57429521,11.7137863 6.57429521,11.2914215 6.31376944,11.0308957 C6.05324367,10.77037 5.63083437,10.77037 5.37035308,11.0308957 Z" id="Path"></path>
                    <path d="M11.9743121,6.31376944 L14.8046057,3.48347587 C15.0651314,3.22295011 15.0651314,2.80058527 14.8046057,2.54005951 C14.5441244,2.27953374 14.1217151,2.27953374 13.8611893,2.54005951 L11.0308957,5.37035308 C10.77037,5.63087884 10.77037,6.05324367 11.0308957,6.31376944 C11.291377,6.57429521 11.7138308,6.57429521 11.9743121,6.31376944 Z" id="Path"></path>
                    <path d="M5.33682006,8.67233259 C5.33682006,8.30391411 5.03813603,8.00523008 4.66971755,8.00523008 L0.667102507,8.00523008 C0.298684029,8.00523008 0,8.30391411 0,8.67233259 C0,9.04075107 0.298684029,9.3394351 0.667102507,9.3394351 L4.66971755,9.3394351 C5.03813603,9.3394351 5.33682006,9.04075107 5.33682006,8.67233259 Z" id="Path"></path>
                </g>
                <g class="shopping-cart" transform="translate(0.000000, 5.000000)" fill="currentColor">
                    <path d="M19.897908,16.7329888 C18.1700623,16.7329888 16.7644023,18.1386978 16.7644023,19.8664944 C16.7644023,21.5942909 18.1701114,23 19.897908,23 C21.6257045,23 23.0314136,21.5942909 23.0314136,19.8664944 C23.0314136,18.1386978 21.6257045,16.7329888 19.897908,16.7329888 Z M19.897908,21.1198966 C19.2066617,21.1198966 18.6445057,20.5577406 18.6445057,19.8664944 C18.6445057,19.1752481 19.2066617,18.6130921 19.897908,18.6130921 C20.5891542,18.6130921 21.1513102,19.1752481 21.1513102,19.8664944 C21.1513102,20.5577406 20.5891542,21.1198966 19.897908,21.1198966 Z" id="Shape"></path>
                    <path d="M24.9309541,4.6222153 C24.7529765,4.39441769 24.4800219,4.26154802 24.1908205,4.26154802 L5.80267912,4.26154802 L4.95662278,0.721629068 C4.85541212,0.298625442 4.47717286,0 4.04224189,0 L0.940051687,0 C0.420843941,0 0,0.420794858 0,0.940002604 C0,1.45921035 0.420843941,1.88005429 0.940051687,1.88005429 L3.30024307,1.88005429 L6.35541105,14.6635694 C6.45662172,15.0869166 6.83486098,15.3851985 7.26979195,15.3851985 L21.9033712,15.3851985 C22.3355044,15.3851985 22.7121239,15.090647 22.8158378,14.6713737 L25.1033362,5.42748305 C25.1725443,5.14677317 25.1089317,4.85001291 24.9309541,4.6222153 Z M21.1679005,13.5051442 L8.01179077,13.5051442 L6.25199163,6.14165139 L22.9896924,6.14165139 L21.1679005,13.5051442 Z" id="Shape"></path>
                    <path d="M8.5231942,16.7329888 C6.79534857,16.7329888 5.38968857,18.1386978 5.38968857,19.8664944 C5.38968857,21.5942909 6.79539765,23 8.5231942,23 C10.2509907,23 11.6566998,21.5942909 11.6566998,19.8664944 C11.6566998,18.1386978 10.2509907,16.7329888 8.5231942,16.7329888 Z M8.5231942,21.1198966 C7.83194796,21.1198966 7.26979195,20.5577406 7.26979195,19.8664944 C7.26979195,19.1752481 7.83194796,18.6130921 8.5231942,18.6130921 C9.21444043,18.6130921 9.77659645,19.1752481 9.77659645,19.8664944 C9.77659645,20.5577406 9.21444043,21.1198966 8.5231942,21.1198966 Z" id="Shape"></path>
                </g>
            </g>
        </g>
    </g>
</svg>