<?xml version="1.0" encoding="UTF-8"?><svg version="1.1" width="35px" height="35px" viewBox="0 0 35.0 35.0" xmlns="http://www.w3.org/2000/svg" xmlns:xlink="http://www.w3.org/1999/xlink"><defs><clipPath id="i0"><path d="M1920,0 L1920,2174 L0,2174 L0,0 L1920,0 Z"></path></clipPath><clipPath id="i1"><path d="M30,0 C32.7614237,-5.07265313e-16 35,2.23857625 35,5 L35,30 C35,32.7614237 32.7614237,35 30,35 L5,35 C2.23857625,35 3.38176876e-16,32.7614237 0,30 L0,5 C-3.38176876e-16,2.23857625 2.23857625,5.07265313e-16 5,0 L30,0 Z"></path></clipPath></defs><g transform="translate(-1432.0 -786.0)"><g clip-path="url(#i0)"><g transform="translate(1432.0 786.0)"><g clip-path="url(#i1)"><polygon points="0,0 35,0 35,35 0,35 0,0" stroke="none" fill="#1F3F58"></polygon></g><g transform="translate(15.712212534707586 23.287787465292464) rotate(-90.0)"><path d="M11.4211436,0 L0.578826456,0 C0.0657525196,0 -0.195624769,0.61956098 0.172239563,0.987425312 L5.59339814,6.40858389 C5.81605286,6.63123861 6.1839172,6.63123861 6.40666873,6.40858389 L11.8278273,0.987425312 C12.1955948,0.61956098 11.9342175,0 11.4211436,0 Z" stroke="#FFFFFF" stroke-width="2" fill="none" stroke-miterlimit="10"></path></g></g></g></g></svg>