
<svg width="16px" height="20px" viewBox="0 0 16 20" version="1.1" xmlns="http://www.w3.org/2000/svg" xmlns:xlink="http://www.w3.org/1999/xlink">
    <g id="Webshop" stroke="none" stroke-width="1" fill="none" fill-rule="evenodd">
        <g id="Accessoiresbox" transform="translate(-276.000000, -840.000000)" fill="#E39A3F" fill-rule="nonzero">
            <g id="Group-4" transform="translate(276.000000, 839.000000)">
                <g id="order-food" transform="translate(0.000000, 1.000000)">
                    <path d="M14.5531915,20 L0.765957447,20 C0.340425532,20 0,19.6595745 0,19.2340426 L0,1.95744681 C0,1.53191489 0.340425532,1.19148936 0.765957447,1.19148936 L14.5531915,1.19148936 C14.9787234,1.19148936 15.3191489,1.53191489 15.3191489,1.95744681 L15.3191489,19.1914894 C15.3191489,19.6595745 14.9787234,20 14.5531915,20 Z M1.53191489,18.4255319 L13.7446809,18.4255319 L13.7446809,2.76595745 L1.53191489,2.76595745 L1.53191489,18.4255319 Z" id="Shape"></path>
                    <g id="Group" transform="translate(3.319149, 0.000000)">
                        <path d="M0.765957447,3.78723404 C0.340425532,3.78723404 0,3.44680851 0,3.0212766 L0,0.765957447 C0,0.340425532 0.340425532,0 0.765957447,0 C1.19148936,0 1.53191489,0.340425532 1.53191489,0.765957447 L1.53191489,2.9787234 C1.53191489,3.44680851 1.19148936,3.78723404 0.765957447,3.78723404 L0.765957447,3.78723404 Z" id="Path"></path>
                        <path d="M4.34042553,3.78723404 C3.91489362,3.78723404 3.57446809,3.44680851 3.57446809,3.0212766 L3.57446809,0.765957447 C3.57446809,0.340425532 3.91489362,0 4.34042553,0 C4.76595745,0 5.10638298,0.340425532 5.10638298,0.765957447 L5.10638298,2.9787234 C5.10638298,3.44680851 4.76595745,3.78723404 4.34042553,3.78723404 Z" id="Path"></path>
                        <path d="M7.91489362,3.78723404 C7.4893617,3.78723404 7.14893617,3.44680851 7.14893617,3.0212766 L7.14893617,0.765957447 C7.14893617,0.340425532 7.4893617,0 7.91489362,0 C8.34042553,0 8.68085106,0.340425532 8.68085106,0.765957447 L8.68085106,2.9787234 C8.72340426,3.44680851 8.38297872,3.78723404 7.91489362,3.78723404 Z" id="Path"></path>
                    </g>
                    <g id="Group" transform="translate(3.319149, 7.489362)">
                        <path d="M7.91489362,1.53191489 L0.765957447,1.53191489 C0.340425532,1.53191489 0,1.19148936 0,0.765957447 C0,0.340425532 0.340425532,0 0.765957447,0 L7.95744681,0 C8.38297872,0 8.72340426,0.340425532 8.72340426,0.765957447 C8.72340426,1.19148936 8.38297872,1.53191489 7.91489362,1.53191489 Z" id="Path"></path>
                        <path d="M7.91489362,6.25531915 L0.765957447,6.25531915 C0.340425532,6.25531915 0,5.91489362 0,5.4893617 C0,5.06382979 0.340425532,4.72340426 0.765957447,4.72340426 L7.95744681,4.72340426 C8.38297872,4.72340426 8.72340426,5.06382979 8.72340426,5.4893617 C8.72340426,5.87234043 8.38297872,6.25531915 7.91489362,6.25531915 Z" id="Path"></path>
                    </g>
                </g>
            </g>
        </g>
    </g>
</svg>