<svg width="330px" height="64px" viewBox="0 0 330 64" version="1.1" xmlns="http://www.w3.org/2000/svg" xmlns:xlink="http://www.w3.org/1999/xlink">
    <g id="Projectinrichting" stroke="none" stroke-width="1" fill="none" fill-rule="evenodd">
        <g id="Home" transform="translate(-62.000000, -26.000000)">
            <g id="Oudholland-logo-Copy-2" transform="translate(62.000000, 26.000000)">
                <path class="logo-text" d="M88.0790568,30.2315572 C83.675012,30.2315572 80.0561727,31.5644913 77.2217726,34.2295934 C74.3873726,36.8946954 72.9694066,40.2975075 72.9694066,44.4372637 C72.9694066,48.452919 74.391969,51.7936808 77.2355616,54.4587828 C80.0791543,57.1238849 83.6382414,58.4568189 87.9135891,58.4568189 C92.20579,58.4568189 95.7886248,57.097073 98.6597954,54.3783471 C101.530966,51.6603873 102.967317,48.2751945 102.967317,44.2243006 C102.967317,40.2798883 101.530966,36.9613421 98.6597954,34.2694282 C95.7886248,31.5775142 92.2617119,30.2315572 88.0790568,30.2315572 M87.8584332,25.1679399 C93.8037787,25.1679399 98.7547861,26.9888504 102.709157,30.6314375 C106.664294,34.2740245 108.64148,38.8404727 108.64148,44.3307821 C108.64148,49.8210916 106.645909,54.3653242 102.654767,57.9634801 C98.6628596,61.561636 93.6298845,63.3603309 87.5558419,63.3603309 C81.7560466,63.3603309 76.9253097,61.561636 73.0620991,57.9634801 C69.1988885,54.3653242 67.2676663,49.8570961 67.2676663,44.4372637 C67.2676663,38.8764773 69.2126775,34.2740245 73.103466,30.6314375 C76.9942546,26.9888504 81.9123216,25.1679399 87.8584332,25.1679399" id="Fill-1" fill="currentColor"></path>
                <path class="logo-text" d="M130.871602,62.9342517 L130.871602,59.7895998 C129.806021,60.9172313 128.589527,61.7943632 127.221355,62.4209955 C125.853182,63.0468616 124.489606,63.3609438 123.131392,63.3609438 C121.533403,63.3609438 120.059515,62.9740865 118.709728,62.2011379 C117.359941,61.4281894 116.341089,60.3802274 115.652406,59.056486 C114.963724,57.7327446 114.619766,55.5341695 114.619766,52.4599946 L114.619766,38.4136274 L119.632823,38.4136274 L119.632823,52.3887515 C119.632823,54.9619271 120.013552,56.7590899 120.775776,57.7787079 C121.538,58.7990919 122.873998,59.3092839 124.783771,59.3092839 C127.170795,59.3092839 129.200072,58.1816523 130.871602,55.9248571 L130.871602,38.4136274 L135.88466,38.4136274 L135.88466,62.9342517 L130.871602,62.9342517 Z" id="Fill-3" fill="currentColor"></path>
                <path class="logo-text" d="M159.849972,58.7763401 L159.849972,43.2376996 C158.288754,42.4739437 156.70915,42.0916827 155.111927,42.0916827 C152.613825,42.0916827 150.625915,42.8830166 149.148197,44.4641522 C147.669712,46.0452877 146.93047,48.1779822 146.93047,50.8607035 C146.93047,53.3840856 147.57319,55.3290968 148.858628,56.6972694 C149.630045,57.514649 150.446658,58.066208 151.310001,58.349648 C152.173344,58.6346201 153.72537,58.7763401 155.966078,58.7763401 L159.849972,58.7763401 Z M159.849972,25.7004241 L164.890607,25.7004241 L164.890607,62.9344815 L154.175043,62.9344815 C150.429039,62.9344815 147.439896,61.7884646 145.209147,59.4956648 C142.977631,57.2036311 141.862257,54.1302222 141.862257,50.2746722 C141.862257,46.6673236 143.033553,43.7003963 145.374614,41.372358 C147.715676,39.0450858 150.704818,37.8806836 154.340511,37.8806836 C156.030426,37.8806836 157.866658,38.22694 159.849972,38.920219 L159.849972,25.7004241 Z" id="Fill-5" fill="currentColor"></path>
                <path class="logo-text" d="M171.584235,25.7005007 L176.597292,25.7005007 L176.597292,41.6390214 C178.690918,39.1692631 181.289373,37.934384 184.392658,37.934384 C186.081808,37.934384 187.597063,38.3434569 188.937657,39.1600705 C190.278252,39.9774502 191.274888,41.1058478 191.9268,42.5452633 C192.578712,43.9839129 192.904285,46.1258 192.904285,48.9678606 L192.904285,62.9345581 L187.891227,62.9345581 L187.891227,47.768986 C187.891227,45.9741213 187.436957,44.5308755 186.527651,43.4377163 C185.618345,42.3453232 184.420236,41.7991267 182.932559,41.7991267 C181.830974,41.7991267 180.79297,42.0741401 179.820082,42.624933 C178.847193,43.1757258 177.772419,44.0911604 176.597292,45.3704707 L176.597292,62.9345581 L171.584235,62.9345581 L171.584235,25.7005007 Z" id="Fill-7" fill="currentColor"></path>
                <path class="logo-text" d="M211.745768,42.7315677 C209.339592,42.7315677 207.366237,43.4960896 205.823404,45.0236014 C204.281337,46.5518793 203.50992,48.4976566 203.50992,50.8609333 C203.50992,53.2058248 204.298956,55.1209599 205.87856,56.6040406 C207.457397,58.0878873 209.48744,58.8301937 211.966391,58.8301937 C214.426957,58.8301937 216.442445,58.0794607 218.012856,56.5772287 C219.582501,55.0765288 220.368472,53.1529671 220.368472,50.8073095 C220.368472,48.4800373 219.551092,46.5518793 217.916333,45.0236014 C216.281574,43.4960896 214.225485,42.7315677 211.745768,42.7315677 M212.021547,38.3604633 C215.877863,38.3604633 219.082267,39.5647002 221.635525,41.9724081 C224.187251,44.380116 225.463498,47.4052635 225.463498,51.0470845 C225.463498,54.58319 224.168866,57.5194752 221.579603,59.8559401 C218.990341,62.1924049 215.730015,63.3606374 211.800923,63.3606374 C207.999763,63.3606374 204.822937,62.1747857 202.269679,59.8030823 C199.717187,57.4306129 198.441707,54.4682819 198.441707,50.9137911 C198.441707,47.3248278 199.730976,44.3356849 202.311812,41.9455962 C204.891116,39.5555076 208.12846,38.3604633 212.021547,38.3604633" id="Fill-9" fill="currentColor"></path>
                <polygon class="logo-text" id="Fill-11" fill="currentColor" mask="url(#mask-of609l-a5b-2)" points="231.138426 62.9344049 236.151484 62.9344049 236.151484 25.7003475 231.138426 25.7003475"></polygon>
                <polygon class="logo-text" id="Fill-13" fill="currentColor" mask="url(#mask-of609l-a5b-2)" points="243.506369 62.9344049 248.519426 62.9344049 248.519426 25.7003475 243.506369 25.7003475"></polygon>
                <path class="logo-text" d="M266.755343,58.0834442 L266.755343,50.8074628 L263.394664,52.0599611 C261.686364,52.7180016 260.478296,53.3791062 259.771994,54.0455733 C259.064927,54.7120403 258.711776,55.5432089 258.711776,56.5375471 C258.711776,57.5502706 259.046541,58.3768429 259.717605,59.016498 C260.387136,59.6561532 261.255075,59.9755977 262.320656,59.9755977 C263.917879,59.9755977 265.395597,59.3451352 266.755343,58.0834442 M271.685667,48.1952184 L271.685667,58.6166178 C271.685667,59.4516167 271.979066,59.8691162 272.567395,59.8691162 C273.173344,59.8691162 274.118655,59.4339975 275.404094,58.562994 L275.404094,61.5214948 C274.265737,62.2323929 273.352601,62.7165391 272.663918,62.9746993 C271.975236,63.2313274 271.254379,63.3607906 270.501348,63.3607906 C268.352566,63.3607906 267.085513,62.5434109 266.700187,60.9086515 C264.569791,62.5081724 262.301505,63.3071668 259.896095,63.3071668 C258.132639,63.3071668 256.664113,62.743351 255.488986,61.6149534 C254.313093,60.4865558 253.726296,59.0693557 253.726296,57.3641194 C253.726296,55.8182223 254.299304,54.4362608 255.446853,53.2190009 C256.594402,52.0025071 258.225331,51.0388111 260.336576,50.3279129 L266.755343,48.1952184 L266.755343,46.8890963 C266.755343,43.9397882 265.230896,42.4651341 262.182001,42.4651341 C259.446421,42.4651341 256.783618,43.8333066 254.194355,46.5696517 L254.194355,41.2654934 C256.140898,39.0447027 258.940826,37.9339244 262.59567,37.9339244 C265.331249,37.9339244 267.52676,38.6272033 269.179138,40.0129951 C269.729931,40.4573064 270.225568,41.0487001 270.666815,41.7856441 C271.107296,42.5225881 271.386906,43.2602982 271.507177,43.9980083 C271.625915,44.7349523 271.685667,46.134533 271.685667,48.1952184" id="Fill-14" fill="currentColor" mask="url(#mask-of609l-a5b-2)"></path>
                <path class="logo-text" d="M284.852757,38.4138572 L284.852757,41.5324633 C287.0927,39.133182 289.635999,37.9343074 292.482656,37.9343074 C294.061493,37.9343074 295.530785,38.3295913 296.889765,39.1201591 C298.248745,39.9107268 299.281386,40.9954594 299.988453,42.3720585 C300.696287,43.7486577 301.049438,45.9296136 301.049438,48.9149262 L301.049438,62.9344815 L296.035615,62.9344815 L296.035615,48.96855 C296.035615,46.4627872 295.641097,44.6732849 294.851295,43.597745 C294.061493,42.5229712 292.74005,41.9852012 290.884667,41.9852012 C288.516794,41.9852012 286.505136,43.1312181 284.852757,45.4232518 L284.852757,62.9344815 L279.729388,62.9344815 L279.729388,38.4138572 L284.852757,38.4138572 Z" id="Fill-15" fill="currentColor" mask="url(#mask-of609l-a5b-2)"></path>
                <path class="logo-text" d="M324.959518,58.7763401 L324.959518,43.2376996 C323.398299,42.4739437 321.818696,42.0916827 320.221473,42.0916827 C317.723371,42.0916827 315.735461,42.8830166 314.257742,44.4641522 C312.779258,46.0452877 312.040016,48.1779822 312.040016,50.8607035 C312.040016,53.3840856 312.682735,55.3290968 313.968174,56.6972694 C314.73959,57.514649 315.556204,58.066208 316.419547,58.349648 C317.28289,58.6346201 318.834915,58.7763401 321.075623,58.7763401 L324.959518,58.7763401 Z M324.959518,25.7004241 L330.000153,25.7004241 L330.000153,62.9344815 L319.284589,62.9344815 C315.538585,62.9344815 312.549442,61.7884646 310.318692,59.4956648 C308.087177,57.2036311 306.971802,54.1302222 306.971802,50.2746722 C306.971802,46.6673236 308.143099,43.7003963 310.48416,41.372358 C312.825221,39.0450858 315.814364,37.8806836 319.450057,37.8806836 C321.139972,37.8806836 322.976204,38.22694 324.959518,38.920219 L324.959518,25.7004241 Z" id="Fill-16" fill="currentColor" mask="url(#mask-of609l-a5b-2)"></path>
                <path class="logo-circle" d="M37.557179,11.6386593 C37.557179,18.0666188 32.3464793,23.2773185 25.9185197,23.2773185 C19.4905601,23.2773185 14.2798604,18.0666188 14.2798604,11.6386593 C14.2798604,5.21069969 19.4905601,0 25.9185197,0 C32.3464793,0 37.557179,5.21069969 37.557179,11.6386593" id="Fill-17" fill="currentColor" mask="url(#mask-of609l-a5b-2)"></path>
                <polygon class="logo-right" id="Fill-18" fill="currentColor" mask="url(#mask-of609l-a5b-2)" points="28.974769 27.1468874 28.974769 58.9771994 51.8882118 63.5819504 51.8882118 22.3184487"></polygon>
                <polygon class="logo-left" id="Fill-19" fill="currentColor" mask="url(#mask-of609l-a5b-2)" points="22.9132896 27.2253313 22.9132896 59.0556434 -0.000153210811 63.6603943 -0.000153210811 22.3968926"></polygon>
            </g>
        </g>
    </g>
</svg>