
<svg width="92px" height="90px" viewBox="0 0 92 90" version="1.1" xmlns="http://www.w3.org/2000/svg" xmlns:xlink="http://www.w3.org/1999/xlink">
    <defs>
        <polygon id="path-5xm7kwzyur-1" points="0 0 62.5289826 0 62.5289826 89.3797533 0 89.3797533"></polygon>
    </defs>
    <g id="Page-1" stroke="none" stroke-width="1" fill="none" fill-rule="evenodd">
        <g id="Group-22">
            <path d="M15.6455,26.0142533 C15.6045,25.6552533 15.2925,25.4002533 14.9205,25.4392533 C14.3315,25.5072533 13.8555,25.5772533 13.4905,25.6372533 C13.0005,25.7182533 12.7205,25.7792533 12.7005,25.7832533 C12.3485,25.8612533 12.1255,26.2112533 12.2045,26.5642533 C12.2725,26.8692533 12.5425,27.0762533 12.8425,27.0762533 C12.8885,27.0762533 12.9365,27.0712533 12.9835,27.0612533 C12.9925,27.0602533 13.7695,26.8892533 15.0705,26.7402533 C15.0925,26.7372533 15.1105,26.7242533 15.1305,26.7202533 C15.4555,26.6492533 15.6845,26.3512533 15.6455,26.0142533" id="Fill-1" fill="#FFFFFF"></path>
            <path d="M74.8936,56.8848533 C74.6376,57.1048533 74.3806,57.3178533 74.1226,57.5188533 C73.8366,57.7408533 73.7846,58.1518533 74.0076,58.4368533 C74.1366,58.6028533 74.3306,58.6898533 74.5256,58.6898533 C74.6516,58.6898533 74.7806,58.6468533 74.8936,58.5688533 C74.9036,58.5628533 74.9156,58.5588533 74.9256,58.5518533 C75.2076,58.3318533 75.4886,58.1018533 75.7656,57.8618533 C76.6266,57.1188533 77.4646,56.2828533 78.2666,55.3638533 C78.5046,55.0918533 78.4776,54.6778533 78.2046,54.4408533 C77.9346,54.2018533 77.5186,54.2308533 77.2806,54.5028533 C76.7886,55.0668533 76.2826,55.5968533 75.7656,56.0918533 C75.4776,56.3678533 75.1866,56.6318533 74.8936,56.8848533" id="Fill-3" fill="#FFFFFF"></path>
            <path d="M39.4609,34.2151533 C39.5879,34.3441533 39.7579,34.4091533 39.9259,34.4091533 C40.0929,34.4091533 40.2589,34.3461533 40.3869,34.2201533 C40.6439,33.9661533 40.6459,33.5521533 40.3919,33.2951533 C39.9519,32.8511533 39.4849,32.4341533 39.0149,32.0231533 C38.7309,31.7751533 38.4379,31.5391533 38.1429,31.3031533 C37.7229,30.9681533 37.3069,30.6291533 36.8679,30.3231533 C36.5709,30.1151533 36.1639,30.1881533 35.9579,30.4851533 C35.7509,30.7811533 35.8219,31.1891533 36.1179,31.3961533 C36.8219,31.8881533 37.4919,32.4301533 38.1429,32.9971533 C38.4399,33.2571533 38.7299,33.5291533 39.0149,33.8031533 C39.1599,33.9431533 39.3179,34.0711533 39.4609,34.2151533" id="Fill-5" fill="#FFFFFF"></path>
            <path d="M44.4766,41.3738533 C44.5906,41.6058533 44.8236,41.7408533 45.0656,41.7408533 C45.1606,41.7408533 45.2596,41.7198533 45.3526,41.6738533 C45.6766,41.5148533 45.8106,41.1228533 45.6516,40.7978533 C45.1896,39.8558533 44.6736,38.9638533 44.1366,38.0978533 C43.8716,37.6728533 43.6116,37.2408533 43.3306,36.8378533 C43.3126,36.8108533 43.2846,36.7958533 43.2636,36.7728533 C43.0456,36.5408533 42.6916,36.4868533 42.4196,36.6738533 C42.1236,36.8798533 42.0496,37.2878533 42.2576,37.5848533 C42.6076,38.0888533 42.9396,38.6208533 43.2636,39.1618533 C43.5696,39.6718533 43.8566,40.2018533 44.1366,40.7408533 C44.2466,40.9538533 44.3696,41.1568533 44.4766,41.3738533" id="Fill-7" fill="#FFFFFF"></path>
            <path d="M53.9746,56.9863533 C54.0646,57.0303533 54.1586,57.0583533 54.2566,57.0583533 C54.4256,57.0583533 54.5966,56.9923533 54.7246,56.8613533 C54.9776,56.6033533 54.9726,56.1883533 54.7136,55.9363533 C54.4656,55.6933533 54.2176,55.4413533 53.9746,55.1803533 C53.6796,54.8663533 53.3896,54.5363533 53.1016,54.1983533 C52.6736,53.6943533 52.2516,53.1683533 51.8436,52.6153533 C51.6286,52.3273533 51.2216,52.2633533 50.9286,52.4793533 C50.6376,52.6943533 50.5766,53.1033533 50.7916,53.3943533 C51.5306,54.3933533 52.3056,55.3193533 53.1016,56.1603533 C53.3326,56.4043533 53.5646,56.6433533 53.7976,56.8723533 C53.8506,56.9233533 53.9126,56.9563533 53.9746,56.9863533" id="Fill-9" fill="#FFFFFF"></path>
            <path d="M48.8809,49.8811533 C48.9499,49.8811533 49.0179,49.8501533 49.0859,49.8271533 C49.1249,49.8141533 49.1649,49.8171533 49.2019,49.7971533 C49.5169,49.6191533 49.6269,49.2191533 49.4479,48.9051533 C49.3249,48.6851533 49.2079,48.4481533 49.0859,48.2231533 C48.7889,47.6751533 48.4969,47.1161533 48.2129,46.5371533 C47.9569,46.0141533 47.6999,45.4871533 47.4579,44.9421533 C47.3109,44.6121533 46.9239,44.4661533 46.5939,44.6111533 C46.2639,44.7581533 46.1149,45.1451533 46.2639,45.4761533 C46.8719,46.8421533 47.5289,48.1461533 48.2129,49.3671533 C48.2459,49.4261533 48.2769,49.4911533 48.3109,49.5491533 C48.4309,49.7621533 48.6509,49.8811533 48.8809,49.8811533" id="Fill-11" fill="#FFFFFF"></path>
            <path d="M23.8877,26.8159533 C23.9167,26.8209533 23.9467,26.8219533 23.9747,26.8219533 C24.2977,26.8219533 24.5777,26.5839533 24.6227,26.2539533 C24.6707,25.8959533 24.4187,25.5659533 24.0607,25.5189533 C23.4737,25.4399533 22.8727,25.3869533 22.2717,25.3369533 C21.9817,25.3139533 21.6927,25.2909533 21.3997,25.2739533 C20.7657,25.2359533 20.1297,25.2049533 19.4897,25.1999533 L19.4837,25.1999533 C19.1257,25.1999533 18.8327,25.4899533 18.829677,25.8499533 C18.8267,26.2099533 19.1177,26.5059533 19.4797,26.5079533 C20.1227,26.5139533 20.7627,26.5439533 21.3997,26.5839533 C21.6927,26.6009533 21.9807,26.6269533 22.2717,26.6519533 C22.8137,26.6989533 23.3577,26.7459533 23.8877,26.8159533" id="Fill-13" fill="#FFFFFF"></path>
            <path d="M80.1436,51.8428533 C80.2526,51.9128533 80.3756,51.9468533 80.4966,51.9468533 C80.5726,51.9468533 80.6436,51.9178533 80.7136,51.8928533 C80.8446,51.8458533 80.9656,51.7728533 81.0476,51.6468533 C81.4426,51.0338533 81.8286,50.3958533 82.1946,49.7478533 C82.3726,49.4338533 82.2626,49.0358533 81.9486,48.8568533 C81.6336,48.6778533 81.2336,48.7898533 81.0566,49.1028533 C80.9476,49.2958533 80.8276,49.4778533 80.7136,49.6688533 C80.4616,50.0968533 80.2106,50.5288533 79.9476,50.9378533 C79.7516,51.2428533 79.8386,51.6468533 80.1436,51.8428533" id="Fill-15" fill="#FFFFFF"></path>
            <g id="Group-19">
                <mask id="mask-5xm7kwzyur-2" fill="white">
                    <use xlink:href="#path-5xm7kwzyur-1"></use>
                </mask>
                <g id="Clip-18"></g>
                <path d="M34.7549,4.54405329 L38.1429,6.30805329 L39.0149,6.76305329 L43.2639,8.97505329 L44.1369,9.43005329 L48.2129,11.5520533 L49.0859,12.0070533 L57.3619,16.3170533 L57.3619,58.6930533 C57.3089,58.7370533 57.2569,58.7840533 57.2179,58.8450533 C57.0449,59.1260533 57.1179,59.4770533 57.3619,59.6840533 L57.3619,85.9140533 L53.9749,84.1490533 L53.1019,83.6950533 L49.0839,81.6040533 L48.2129,81.1500533 L44.1369,79.0260533 L43.2639,78.5720533 L39.0149,76.3600533 L38.1429,75.9050533 L34.7549,74.1410533 L34.7549,4.54405329 Z M25.2249,73.0630533 L22.2719,74.6010533 L21.3999,75.0560533 L17.1509,77.2680533 L16.2769,77.7220533 L12.1749,79.8580533 L11.6339,80.1390533 L7.2759,82.4090533 L6.7999,82.6570533 L2.6159,84.8350533 L2.6159,15.2390533 L11.4099,10.6590533 L11.7799,10.4670533 L25.2249,3.46605329 L25.2249,73.0630533 Z M27.2129,0.190053287 C26.8209,-0.0479467134 26.3349,-0.0629467134 25.9299,0.148053287 L0.7039,13.2830533 C0.2719,13.5090533 -0.0001,13.9560533 -0.0001,14.4440533 L-0.0001,86.9930533 C-0.0001,87.4500533 0.2379,87.8740533 0.6299,88.1110533 C0.8379,88.2370533 1.0719,88.3020533 1.3089,88.3020533 C1.5159,88.3020533 1.7239,88.2520533 1.9129,88.1530533 L27.1379,75.0180533 C27.5709,74.7930533 27.8429,74.3460533 27.8429,73.8580533 L27.8429,27.4310533 C27.9259,27.5550533 28.0459,27.6560533 28.2019,27.7000533 C29.5689,28.0840533 30.8889,28.5720533 32.1379,29.1400533 L32.1379,74.9350533 C32.1379,75.4230533 32.4089,75.8710533 32.8419,76.0960533 L58.0669,89.2320533 C58.2559,89.3310533 58.4639,89.3800533 58.6709,89.3800533 C58.9059,89.3800533 59.1419,89.3160533 59.3509,89.1900533 C59.7409,88.9530533 59.9809,88.5290533 59.9809,88.0710533 L59.9809,61.0380533 C60.5499,61.2710533 61.1249,61.4750533 61.7029,61.6310533 C61.7599,61.6470533 61.8189,61.6550533 61.8739,61.6550533 C62.1629,61.6550533 62.4269,61.4630533 62.5059,61.1710533 C62.6009,60.8220533 62.3939,60.4640533 62.0459,60.3690533 C61.3529,60.1820533 60.6629,59.9290533 59.9809,59.6230533 L59.9809,15.5230533 C59.9809,15.0350533 59.7079,14.5870533 59.2759,14.3610533 L34.0499,1.22605329 C33.6469,1.01505329 33.1579,1.03105329 32.7669,1.26905329 C32.3749,1.50605329 32.1379,1.93005329 32.1379,2.38705329 L32.1379,27.7240533 C30.9869,27.2310533 29.7949,26.7880533 28.5569,26.4400533 C28.2729,26.3610533 27.9939,26.4820533 27.8429,26.7100533 L27.8429,1.30905329 C27.8429,0.852053287 27.6049,0.428053287 27.2129,0.190053287 L27.2129,0.190053287 Z" id="Fill-17" fill="#FFFFFF" mask="url(#mask-5xm7kwzyur-2)"></path>
            </g>
            <path d="M89.2236,73.0630533 L85.8356,74.8280533 L84.9626,75.2810533 L80.7136,77.4940533 L79.8416,77.9480533 L75.7656,80.0710533 L74.8936,80.5250533 L70.8766,82.6160533 L70.0046,83.0700533 L66.6166,84.8350533 L66.6166,62.0490533 C67.7536,61.9390533 68.8876,61.6870533 70.0046,61.2930533 C70.2966,61.1890533 70.5876,61.0820533 70.8766,60.9590533 C70.8946,60.9520533 70.9126,60.9460533 70.9306,60.9390533 C71.2626,60.7970533 71.4166,60.4120533 71.2756,60.0800533 C71.1986,59.9000533 71.0496,59.7790533 70.8766,59.7220533 C70.7316,59.6750533 70.5696,59.6710533 70.4156,59.7360533 C70.2796,59.7940533 70.1416,59.8400533 70.0046,59.8930533 C68.8896,60.3300533 67.7536,60.6110533 66.6166,60.7310533 L66.6166,15.2390533 L70.0046,13.4740533 L70.6916,13.1160533 L74.8936,10.9280533 L75.7656,10.4740533 L79.8416,8.35105329 L80.7136,7.89705329 L84.9626,5.68505329 L85.8356,5.23005329 L89.2236,3.46605329 L89.2236,73.0630533 Z M63.9986,14.4440533 L63.9986,86.9930533 C63.9986,87.4500533 64.2376,87.8740533 64.6276,88.1110533 C64.8366,88.2370533 65.0716,88.3020533 65.3076,88.3020533 C65.5146,88.3020533 65.7226,88.2510533 65.9116,88.1530533 L80.3226,80.6490533 L80.6066,80.5010533 L85.0596,78.1820533 L85.8356,77.7780533 L91.1366,75.0180533 C91.5696,74.7930533 91.8416,74.3460533 91.8416,73.8580533 L91.8416,1.30905329 C91.8416,0.852053287 91.6026,0.428053287 91.2116,0.190053287 C90.8196,-0.0479467134 90.3326,-0.0629467134 89.9286,0.148053287 L64.7036,13.2830533 C64.2706,13.5090533 63.9986,13.9560533 63.9986,14.4440533 L63.9986,14.4440533 Z" id="Fill-20" fill="#FFFFFF"></path>
        </g>
    </g>
</svg>